Coordinates
version=1
nRows=5
nColumns=40
inDegrees=yes

Units are S.I. units (second, meters, Newtons, ...)
If the header above contains a line with 'inDegrees', this indicates whether rotational values are in degrees (yes) or radians (no).

endheader
time	pelvis_tilt	pelvis_list	pelvis_rotation	pelvis_tx	pelvis_ty	pelvis_tz	hip_flexion_r	hip_adduction_r	hip_rotation_r	knee_angle_r	knee_angle_r_beta	ankle_angle_r	subtalar_angle_r	mtp_angle_r	hip_flexion_l	hip_adduction_l	hip_rotation_l	knee_angle_l	knee_angle_l_beta	ankle_angle_l	subtalar_angle_l	mtp_angle_l	lumbar_extension	lumbar_bending	lumbar_rotation	arm_flex_r	arm_add_r	arm_rot_r	elbow_flex_r	pro_sup_r	wrist_flex_r	wrist_dev_r	arm_flex_l	arm_add_l	arm_rot_l	elbow_flex_l	pro_sup_l	wrist_flex_l	wrist_dev_l
      4.37500000	     -6.02345079	      1.98034934	      0.54986832	     -0.40773885	      0.67941647	     -1.03250011	     62.72094600	     -2.18886459	      4.97066514	      6.00416321	      0.10479242	     -3.15297015	      0.00000000	      0.00000000	     63.40253206	      1.88113848	     -9.19297971	     93.02967752	      1.62367417	     26.53286674	      0.00000000	      0.00000000	    -17.56548029	     -3.76424758	     -0.79463387	     89.93098681	    -12.12529277	     10.41348691	     38.59671227	     69.44945892	      0.00000000	      0.00000000	     89.92835833	    -16.88158335	     11.43390788	     45.28919939	     73.60201680	      0.00000000	      0.00000000
      4.38000000	     -6.09292247	      2.15416389	      0.75182107	     -0.40780507	      0.67963488	     -1.03297150	     62.82054488	     -2.47570822	      5.14337324	      6.05792864	      0.10573080	     -3.12697673	      0.00000000	      0.00000000	     63.44089120	      2.23365905	     -9.23908401	     92.87763058	      1.62102046	     26.50351344	      0.00000000	      0.00000000	    -17.50969245	     -3.88236812	     -1.01966594	     89.93114202	    -12.13538179	      9.33072063	     38.42912647	     77.79286514	      0.00000000	      0.00000000	     89.92833985	    -16.82419335	     10.44374634	     45.10107392	     82.23598698	      0.00000000	      0.00000000
      4.38500000	     -6.14747975	      2.06642697	      0.62598619	     -0.40767465	      0.67967159	     -1.03266005	     62.87569424	     -2.27778871	      5.07194753	      6.01831424	      0.10503940	     -3.22868409	      0.00000000	      0.00000000	     63.46092287	      2.05080145	     -9.22898599	     92.88670935	      1.62117891	     26.63105622	      0.00000000	      0.00000000	    -17.41226969	     -3.83543872	     -0.83309139	     89.93095787	    -12.15077450	     10.36740395	     38.64669307	     69.42937876	      0.00000000	      0.00000000	     89.92822679	    -16.84501556	     11.57432244	     45.29487203	     72.70764227	      0.00000000	      0.00000000
      4.39000000	     -6.19884215	      2.16125156	      0.65611681	     -0.40759801	      0.67989643	     -1.03274862	     62.96332619	     -2.33863497	      5.20645193	      6.07610366	      0.10604801	     -3.08130219	      0.00000000	      0.00000000	     63.47001771	      2.15651399	     -9.28334055	     92.80828971	      1.61981023	     26.46820108	      0.00000000	      0.00000000	    -17.34554713	     -3.92906346	     -0.84647110	     89.93102978	    -12.17594235	      9.52657146	     38.46496159	     76.34883043	      0.00000000	      0.00000000	     89.92805811	    -16.77184864	     10.52612101	     45.02166889	     82.52088451	      0.00000000	      0.00000000
      4.39500000	     -6.17072702	      2.13230200	      0.84883389	     -0.40766692	      0.68030599	     -1.03303757	     62.91535171	     -2.48502053	      5.00243231	      6.05280951	      0.10564145	     -2.99705058	      0.00000000	      0.00000000	     63.41418042	      2.34325671	     -9.15508433	     92.71168178	      1.61812410	     26.43174575	      0.00000000	      0.00000000	    -17.40001643	     -3.83295245	     -1.00341146	     89.93146228	    -12.17524114	      9.41543914	     38.52415518	     76.66413646	      0.00000000	      0.00000000	     89.92789209	    -16.74764894	     10.46121514	     45.00561944	     82.44702963	      0.00000000	      0.00000000
